<svg viewBox="0 0 800 533" xmlns="http://www.w3.org/2000/svg">
  <rect width="800" height="533" fill="#2C3A4A"/>
  <path d="M -20 38 Q 10 46 40 38 Q 70 51 100 38 Q 130 36 160 38 Q 190 25 220 38 Q 250 39 280 38 Q 310 41 340 38 Q 370 21 400 38 Q 430 24 460 38 Q 490 50 520 38 Q 550 20 580 38 Q 610 27 640 38 Q 670 38 700 38 Q 730 27 760 38 Q 790 39 820 38 " fill="none" stroke="#E6A445" stroke-opacity="0.1" stroke-width="1.5"/>
<path d="M -20 120 Q 10 104 40 120 Q 70 106 100 120 Q 130 110 160 120 Q 190 119 220 120 Q 250 111 280 120 Q 310 115 340 120 Q 370 129 400 120 Q 430 106 460 120 Q 490 128 520 120 Q 550 111 580 120 Q 610 105 640 120 Q 670 104 700 120 Q 730 113 760 120 Q 790 122 820 120 " fill="none" stroke="#E6A445" stroke-opacity="0.14" stroke-width="1.5"/>
<path d="M -20 178 Q 10 182 40 178 Q 70 180 100 178 Q 130 166 160 178 Q 190 186 220 178 Q 250 165 280 178 Q 310 161 340 178 Q 370 181 400 178 Q 430 180 460 178 Q 490 184 520 178 Q 550 193 580 178 Q 610 194 640 178 Q 670 176 700 178 Q 730 163 760 178 Q 790 191 820 178 " fill="none" stroke="#E6A445" stroke-opacity="0.18" stroke-width="1.5"/>
<path d="M -20 251 Q 10 246 40 251 Q 70 255 100 251 Q 130 242 160 251 Q 190 234 220 251 Q 250 248 280 251 Q 310 264 340 251 Q 370 260 400 251 Q 430 251 460 251 Q 490 246 520 251 Q 550 259 580 251 Q 610 257 640 251 Q 670 257 700 251 Q 730 242 760 251 Q 790 262 820 251 " fill="none" stroke="#E6A445" stroke-opacity="0.22" stroke-width="1.5"/>
<path d="M -20 327 Q 10 314 40 327 Q 70 344 100 327 Q 130 333 160 327 Q 190 312 220 327 Q 250 341 280 327 Q 310 310 340 327 Q 370 343 400 327 Q 430 342 460 327 Q 490 327 520 327 Q 550 329 580 327 Q 610 328 640 327 Q 670 319 700 327 Q 730 320 760 327 Q 790 309 820 327 " fill="none" stroke="#E6A445" stroke-opacity="0.26" stroke-width="1.5"/>
  <circle cx="660" cy="120" r="3" fill="#E6A445" fill-opacity="0.6"/>
  <text x="400" y="255" font-family="Georgia, serif" font-size="22" fill="#F6F1E7" fill-opacity="0.55" text-anchor="middle">Ridge House</text>
  <text x="400" y="285" font-family="Georgia, serif" font-size="13" fill="#F6F1E7" fill-opacity="0.35" text-anchor="middle" letter-spacing="2">PHOTO PLACEHOLDER 2</text>
</svg>